<svg xmlns="http://www.w3.org/2000/svg" width="224" height="35" viewBox="0 0 224 35"><g data-name="그룹 4504"><g data-name="그룹 4494"><g data-name="그룹 4492"><path data-name="패스 4931" d="M-.004 10.622V0h6.176v16.107c0 .241-.365.348-.549.163Z" fill="#e8473f"/><path data-name="패스 4932" d="M15.432 29.05V0H9.258v34.536c0 .24.366.349.55.164Z" fill="#e8473f"/><path data-name="사각형 999" fill="#e8473f" d="M19.548 0h6.173v34.794h-6.173z"/><path data-name="패스 4933" d="M29.358.095c-.186-.186-.551-.077-.551.163v15.831c0 .241.365.348.551.163l5.624-5.649V5.742Z" fill="#e8473f"/><path data-name="패스 4934" d="M29.358 18.541c-.186-.186-.551-.077-.551.163v15.832c0 .241.365.349.551.164l5.624-5.649v-4.862Z" fill="#e8473f"/><path data-name="패스 4935" d="M44.52 5.743v29.051h-6.174V.257c0-.24.365-.349.549-.164Z" fill="#004ea1"/><path data-name="패스 4936" d="m52.753 5.743.061 29.054H46.58V.257c0-.24.365-.349.549-.164Z" fill="#004ea1"/><path data-name="패스 4937" d="M60.982 5.743v29.051h-6.173V.257c0-.24.365-.349.55-.164Z" fill="#004ea1"/></g><g data-name="그룹 4493" fill="#004ea1"><path data-name="패스 4938" d="M87.403 30.335v1.963H68.51v-1.963Zm-1.848-4.064a10.921 10.921 0 0 1-7.691-5.728 10.922 10.922 0 0 1-7.691 5.728l-1.016-1.964c4.111-.762 7.46-3.972 7.46-7.275v-1.571h2.517v1.571c0 3.326 3.349 6.536 7.46 7.275Z"/><path data-name="패스 4939" d="M89.322 16.154h9.77V29.78h-9.77Zm2.356 11.732h5.058v-9.839h-5.058Zm16.328-3.649h-3.252V35h-2.379V14.122h2.379v8.152h3.256Z"/><path data-name="패스 4940" d="M127.616 30.474v1.94h-18.915v-1.94Zm-2.125-3.418h-14.457V15.808h14.3v1.917h-11.875v2.679h11.409v1.871h-11.409v2.865h12.032Z"/><path data-name="패스 4941" d="M147.688 30.335v1.963h-18.892v-1.963Zm-1.848-4.064a10.922 10.922 0 0 1-7.691-5.728 10.92 10.92 0 0 1-7.691 5.728l-1.016-1.964c4.111-.762 7.46-3.972 7.46-7.275v-1.571h2.514v1.571c0 3.326 3.349 6.536 7.46 7.275Z"/><path data-name="패스 4942" d="M159.492 24.145v1.824h6.1v5.15h-12.174v1.755h12.888v1.847h-15.22v-5.33h12.148V27.82h-12.195v-1.847h6.074v-1.824h-8.2v-1.898h13.7a17.031 17.031 0 0 0 .346-2.194l-11.963.508-.277-1.824 12.356-.347c.023-.554.023-1.085.023-1.616H151.27v-1.871h14.158v1.684a27.464 27.464 0 0 1-.439 5.658h2.725v1.894Z"/></g></g></g></svg>